<?xml version="1.0" encoding="UTF-8"?> <svg xmlns="http://www.w3.org/2000/svg" viewBox="0 0 540 540"><defs><style>.cls-1{fill:#d68388;}.cls-2{fill:#82a6c2;}.cls-3{fill:#539e65;}.cls-4{fill:#fff;}.cls-5{fill:#f8a97a;}.cls-6{fill:#514c4e;}.cls-7{fill:#fccc75;}.cls-8{fill:#7d797b;}.cls-9{fill:#fdfae9;}.cls-10{fill:#edeae7;}.cls-11{fill:#b6b2b0;}.cls-12{fill:none;stroke:#000;stroke-miterlimit:10;}.cls-13{fill:#72829a;}.cls-14{fill:#d3d1d0;}</style></defs><g id="BG"><rect class="cls-1" width="540" height="540"></rect></g><g id="Illos"><path class="cls-2" d="M91.45,272.63h5.16A21.26,21.26,0,0,0,118,252.15c0-.22,0-.45,0-.68a23.84,23.84,0,0,0-1.26-7.69l-8.87-26.17H80.21l-8.87,26.17a24.12,24.12,0,0,0-1.26,7.69c0,.23,0,.46,0,.68A21.27,21.27,0,0,0,91.45,272.63Z"></path><path class="cls-3" d="M134.52,113.09c5.46-13.77,1.74-22.42-14.25-17-13.84,4.7-16.11,19.42-20.66,31.8C111.23,125.82,129.4,126,134.52,113.09Z"></path><path class="cls-3" d="M134.52,189.57c5.46-13.77,1.74-22.43-14.25-17-13.84,4.71-16.11,19.42-20.66,31.8C111.23,202.3,129.4,202.49,134.52,189.57Z"></path><path class="cls-3" d="M134.52,150.79c5.46-13.77,1.74-22.43-14.25-17-13.84,4.7-16.11,19.42-20.66,31.8C111.23,163.52,129.4,163.71,134.52,150.79Z"></path><path class="cls-3" d="M54,120.85c-5.46-13.78-1.74-22.43,14.25-17,13.85,4.71,16.12,19.42,20.66,31.8C77.29,133.58,59.11,133.77,54,120.85Z"></path><path class="cls-3" d="M57.36,157c-5-12.63-1.6-20.56,13.06-15.58,12.7,4.31,14.78,17.8,18.94,29.15C78.72,168.68,62.05,168.85,57.36,157Z"></path><path class="cls-3" d="M110.85,155.52l-.6-.62L96.32,168.35a.69.69,0,0,1-1.17-.49l-.4-33.15a3.1,3.1,0,0,1,.93-2.24l15.17-14.65-.6-.62L95.87,131.09a.69.69,0,0,1-1.17-.49l0-1.66H93.39l-.11,8.9a.69.69,0,0,1-1.17.49L78.26,125l-.6.62L93,140.42a.67.67,0,0,1,.21.5l-.38,31a.69.69,0,0,1-1.17.48l-12-11.64-.6.62,12.84,12.41a3,3,0,0,1,.93,2.23l-.5,41.6h3.45l-.09-7.31a3,3,0,0,1,.93-2.24l14.25-13.77-.6-.62-13.46,13a.69.69,0,0,1-1.17-.49L95.2,172a3.06,3.06,0,0,1,.93-2.23Z"></path><path class="cls-4" d="M124.78,115.3a7.37,7.37,0,0,1-3.62.82,6.06,6.06,0,0,1-6.17-6.35c0-4.2,2.92-7.82,7.43-7.82a5.65,5.65,0,0,1,5.93,5.88c0,3-1.71,4.85-3.63,4.85a1.51,1.51,0,0,1-1.5-1.8h-.08a3.2,3.2,0,0,1-2.87,1.8,2.31,2.31,0,0,1-2.2-2.57,4.8,4.8,0,0,1,4.82-4.82,5.44,5.44,0,0,1,2.18.42l-.69,3.69c-.31,1.55-.06,2.26.61,2.28,1,0,2.2-1.37,2.2-3.73,0-3-1.77-5.06-4.93-5.06-3.32,0-6.11,2.62-6.11,6.75,0,3.4,2.22,5.5,5.24,5.5a6.44,6.44,0,0,0,3.07-.71Zm-1.11-8.79a3.62,3.62,0,0,0-1-.14,3.5,3.5,0,0,0-3.24,3.66c0,.9.45,1.55,1.34,1.55,1.19,0,2.26-1.51,2.49-2.77Z"></path><circle class="cls-4" cx="116.24" cy="147.35" r="2.33"></circle><circle class="cls-4" cx="122.15" cy="147.35" r="2.33"></circle><circle class="cls-4" cx="128.06" cy="147.35" r="2.33"></circle><polygon class="cls-4" points="68.62 160.26 63.82 156 64.85 154.84 68.58 158.14 76.08 150.88 77.16 151.99 68.62 160.26"></polygon><path class="cls-5" d="M100.4,215.3H87.65a13.09,13.09,0,0,0-7.44,2.31h27.64l-.46-.29A13.13,13.13,0,0,0,100.4,215.3Z"></path><polygon class="cls-4" points="122.22 185.82 127.78 182.19 114.44 182.19 121.11 186.54 122.22 185.82"></polygon><polygon class="cls-4" points="127.91 191.71 122.16 186.66 121.11 187.35 120.06 186.66 114.31 191.71 127.91 191.71"></polygon><polygon class="cls-4" points="119.47 186.28 113.83 182.59 113.83 191.23 119.47 186.28"></polygon><polygon class="cls-4" points="126.48 191.44 126.5 191.44 126.5 191.42 126.48 191.44"></polygon><polygon class="cls-4" points="113.75 191.42 113.75 191.44 113.77 191.44 113.75 191.42"></polygon><polygon class="cls-4" points="126.5 183.11 126.5 183.11 126.5 183.11 126.5 183.11"></polygon><polygon class="cls-4" points="128.39 191.23 128.39 182.59 122.75 186.28 128.39 191.23"></polygon><path class="cls-4" d="M62.56,124.56l.59-4.42H61.3v-1.33h2.05l.43-3.27H61.84v-1.33H64l.58-4.3h1.31l-.56,4.3h2.34l.59-4.3h1.33l-.57,4.3h1.85v1.33h-2l-.41,3.27h1.94v1.33H68.2l-.58,4.42H66.26l.59-4.42H64.5l-.58,4.42Zm4.49-5.75.43-3.27H65.14l-.43,3.27Z"></path><path class="cls-6" d="M415.2,348.86a27.85,27.85,0,0,0-43.34-.74L291,445h7.2l78-93.38a22.31,22.31,0,0,1,34.74.6L483.08,445h7Z"></path><path class="cls-7" d="M369,164.8a15.28,15.28,0,0,1-17.66-8.75h0s-4.31-9.82-9.34-6c-6.08,4.57-4.46-12.21-20.69-7.06l1.82,10.37a4.84,4.84,0,0,0,1,2.14h0a4.75,4.75,0,0,1,1,3.14l-.38,10.23a2,2,0,0,0,1.71,2l2.51.36-.24,2.49a1.52,1.52,0,0,0,.79,1.49l.33.18a1.53,1.53,0,0,1,.79,1.5,1.51,1.51,0,0,0,.74,1.47,4.7,4.7,0,0,1,1.8,1.6c.5,1.07.78,5.44,7.22,3.86s10-3.08,14.2,10.32l-.05.42,25.15-7.14-1.84-3s-6.6-9-6.14-20.32Z"></path><path class="cls-8" d="M368.74,115.81a1.39,1.39,0,0,0-1.39-.46L319,127.23a.51.51,0,0,0-.37.57L321.28,143c8.44-2.68,12.05.58,14.43,3.67l41.11-10.1A35.32,35.32,0,0,0,368.74,115.81Z"></path><path class="cls-9" d="M342,150c5-3.78,9.34,6,9.34,6h0A15.28,15.28,0,0,0,369,164.8l2.71-.66a26.27,26.27,0,0,1,2.62-10.49,42.45,42.45,0,0,0,2.52-17.13l-41.11,10.1C337.91,149.48,339.05,152.2,342,150Z"></path><path class="cls-6" d="M317.06,430.55c-4,3.11-6.75,5.08-8.59,6.32a7.26,7.26,0,0,0-3.13,6.94h0s24.36,3.39,31.45-9.41c6.07-10.95,7.4-15.91,11.91-20.5a6.21,6.21,0,0,0,1.09-7.21,20.07,20.07,0,0,0-8.22-8.06c-6.8-3.83-7.55-7.09-8.36-8.75l-9.59,14.87.07.05S328,422.07,317.06,430.55Z"></path><polygon class="cls-6" points="261.94 331.95 196.79 406.19 221.34 426.02 277.42 360.99 261.94 331.95"></polygon><path class="cls-6" d="M198.13,406.39l-34.49,5.68a6.39,6.39,0,0,1-2.54-.08l-11.71-2.71a2.79,2.79,0,0,0-3.4,2.21c-.16,1,.26,2.28,2.08,3.58a143.28,143.28,0,0,0,13.36,7.6,15.45,15.45,0,0,0,7.58,1.72l18.75-.57a9.46,9.46,0,0,1,4.22.84l15.55,7a3.6,3.6,0,0,0,3.84-.57,23.79,23.79,0,0,0,6.94-11Z"></path><path class="cls-6" d="M352.13,411.33h0l0,0a.74.74,0,0,0-.2-.23l-.75-.93h0A.7.7,0,0,0,351,410a.83.83,0,0,0-1.13.29l-2.51,4.29c-3.33,5.69-6.22,10.61-11.12,19.46-6.73,12.15-30.38,9-30.61,9a.83.83,0,1,0-.23,1.64,56.88,56.88,0,0,0,7.13.42,59.37,59.37,0,0,0,6.14-.32c9.41-1,16-4.45,19-9.93,2.78-5,4.91-8.76,6.84-12.11h.8l.14,0a.83.83,0,0,0,.71-.41l5.94-10.27A.81.81,0,0,0,352.13,411.33Z"></path><path class="cls-6" d="M208.84,431.84l-17.16-7.34a10.6,10.6,0,0,0-4.58-.91l-18.72.58a14.7,14.7,0,0,1-7.16-1.62c-3.8-2-11-7.28-14.6-10.25a.83.83,0,0,0-1,1.29c2.87,2.34,10.6,8.21,14.88,10.42a16.22,16.22,0,0,0,8,1.81l18.72-.57A8.79,8.79,0,0,1,191,426l.9.38-.21.52h0a.84.84,0,0,0,.44,1.05l15.49,6.75a.83.83,0,0,0,.41.07.85.85,0,0,0,.68-.49l0-.1.48-1.21h0l0-.06A.83.83,0,0,0,208.84,431.84Z"></path><path class="cls-6" d="M115.52,433.83H208.8a11.26,11.26,0,0,1,11.26,11.26v0a0,0,0,0,1,0,0H104.27a0,0,0,0,1,0,0v0A11.26,11.26,0,0,1,115.52,433.83Z"></path><rect class="cls-6" x="156.06" y="282.06" width="12.19" height="152.74"></rect><path class="cls-10" d="M53.93,271.41H270.39a0,0,0,0,1,0,0v0A11.41,11.41,0,0,1,259,282.82H65.34a11.41,11.41,0,0,1-11.41-11.41v0a0,0,0,0,1,0,0Z"></path><path class="cls-8" d="M96.33,226H162a.45.45,0,0,1,.41.29l15.95,42a2.23,2.23,0,0,0,2.08,1.44h40.92a2.74,2.74,0,0,1,2.74,2.73H116.74a2.64,2.64,0,0,1-2.44-1.62L95.92,226.55A.44.44,0,0,1,96.33,226Z"></path><path class="cls-7" d="M238.27,256.33l-20-.47s-14.86,5.88-23.92,5.88a.54.54,0,0,0-.4.9c.72.81,2.65,1.79,7.82,1.17l11.64-1.16L199,268.06a.53.53,0,0,0-.08.95c.75.44,2.28.8,5.25,0,3.95-1,9.77-2.69,12.17-3.39a7,7,0,0,1,2.23-.27l2.79.11a6.91,6.91,0,0,1,3.08.86c2.36,1.29,8,3.56,16.12,1.38,0,0,3.62-1.39,11.56-1l.49-10.3Z"></path><rect class="cls-11" x="247.1" y="256.17" width="4.42" height="10.93"></rect><path class="cls-7" d="M218.33,255.88l-15.14-.3a1.48,1.48,0,0,0-.84.25l-5.4,3.62a.37.37,0,0,0,.11.66,6.42,6.42,0,0,0,4.34-.84l2.57-1.36,7.4,1.14Z"></path><path class="cls-10" d="M376.41,185.56l83.82,13.2a11.09,11.09,0,0,1,9.62,11h0a11.09,11.09,0,0,1-11.27,11.09l-63.66-.22Z"></path><polygon class="cls-12" points="337.71 248.16 337.71 248.18 337.72 248.16 337.71 248.16"></polygon><path class="cls-13" d="M387.34,188.48c-8.45-3.38-20.83-5.1-38.68-1.53,0,0-12.35.55-21.73,15.44l.11.08a20.7,20.7,0,1,1,30.6,27l-19.92,18.75-.62,37.29,66.84.23V213.24A26.64,26.64,0,0,0,387.34,188.48Z"></path><path class="cls-10" d="M344.7,192.57c-7.48,0-13.31,3.37-17.44,9.31l-.54.77A51.29,51.29,0,0,0,321.84,213c-4.78,13.27-16.42,30.7-21.41,37.87a8.13,8.13,0,0,1-6.31,3.48l-42.59,2v13.26l47.24,4a24,24,0,0,0,18.35-6.32l20.59-19.14h0v0l19.92-18.75a20.7,20.7,0,0,0-12.94-36.86Z"></path><path class="cls-8" d="M327.23,334.34c8.75-.08,29.51-.07,47.24,0A29.47,29.47,0,0,0,404,304.78l0-19.08-66.82-.22c-6.12,2.16-53.91,19.67-76.31,47.09a18.3,18.3,0,0,0,3.05,25.94l58,49.53L340,386.3s-19.6-27.72-37-40.48a1.46,1.46,0,0,1-.14-2.25A36.59,36.59,0,0,1,327.23,334.34Z"></path><path class="cls-7" d="M440.72,220.41H377.48a5.54,5.54,0,0,0-5.54,5.54V321a13.47,13.47,0,0,1-13.47,13.47H324.59a7.71,7.71,0,0,0-7.71,7.69,2.45,2.45,0,0,0,2.45,2.48h93.09a33.84,33.84,0,0,0,33.84-33.84V226A5.54,5.54,0,0,0,440.72,220.41Z"></path><path class="cls-8" d="M391.61,347a27.85,27.85,0,0,0-43.34-.74l-80.91,96.92h7.2l77.95-93.38a22.31,22.31,0,0,1,34.74.6l72.24,92.78h7Z"></path><path class="cls-7" d="M64.52,238.28,72,272.12a.7.7,0,0,0,.66.51h9.67a.7.7,0,0,0,.66-.51l7.34-33.84Z"></path><circle class="cls-4" cx="77.56" cy="256.48" r="6.93"></circle><path class="cls-8" d="M253.57,254.25a.41.41,0,0,1,0,.11h0a1.51,1.51,0,0,1-1.51,1.5h-5.48a1.51,1.51,0,0,1-1.51-1.5h0c0-.05,0-.11,0-.16a1.51,1.51,0,0,0-.46,1.08v.93a1.52,1.52,0,0,0,1.51,1.51h6.34a1.51,1.51,0,0,0,1.5-1.51v-.93A1.47,1.47,0,0,0,253.57,254.25Z"></path><path class="cls-14" d="M245.08,254.36a1.51,1.51,0,0,0,1.51,1.5h5.48a1.51,1.51,0,0,0,1.51-1.5h0a.41.41,0,0,0,0-.11,1.49,1.49,0,0,0-1.09-.47h-6.34a1.51,1.51,0,0,0-1,.42c0,.05,0,.11,0,.16Z"></path></g></svg> 